<?xml version="1.0" encoding="UTF-8"?><svg id="a" xmlns="http://www.w3.org/2000/svg" xmlns:xlink="http://www.w3.org/1999/xlink" viewBox="0 0 181.71 236.27"><defs><style>.f{fill:url(#e);}.f,.g,.h,.i{stroke:#231f20;}.f,.g,.h,.i,.j{stroke-miterlimit:10;}.f,.g,.i{stroke-width:1.14px;}.k{fill:url(#c);}.g{fill:#3e393c;}.h{fill:#0f0b0d;stroke-width:1.92px;}.l{fill:url(#b);}.i,.j{fill:#684d45;}.j{stroke:#cab8a3;stroke-width:2.17px;}.m{fill:url(#d);}</style><linearGradient id="b" x1="31.1" y1="42.65" x2="31.1" y2="9.74" gradientTransform="matrix(1, 0, 0, 1, 0, 0)" gradientUnits="userSpaceOnUse"><stop offset="0" stop-color="#3e393c"/><stop offset=".11" stop-color="#666264"/><stop offset=".53" stop-color="#fff"/><stop offset="1" stop-color="#3e393c"/></linearGradient><linearGradient id="c" x1="147.7" y1="38.89" x2="147.7" y2="10.66" xlink:href="#b"/><linearGradient id="d" x1="5.49" y1="73.91" x2="71.12" y2="73.91" gradientTransform="matrix(1, 0, 0, 1, 0, 0)" gradientUnits="userSpaceOnUse"><stop offset=".53" stop-color="#fff"/><stop offset="1" stop-color="#3e393c"/></linearGradient><linearGradient id="e" x1="75.44" y1="173.97" x2="115.98" y2="173.97" gradientTransform="matrix(1, 0, 0, 1, 0, 0)" gradientUnits="userSpaceOnUse"><stop offset="0" stop-color="#44312a"/><stop offset=".4" stop-color="#684d45"/><stop offset=".59" stop-color="#573f38"/><stop offset=".89" stop-color="#36241e"/></linearGradient></defs><path d="M173.46,11.88c8.79,17.59,6.57,39.19,7.68,58.27-8.45,22.73-37.23,14.35-54,24.55-8.66,7.05-18.61,17.42-18.12,23.4,5.7,43.24,7.26,71.64,6.72,115.69-11.94,1.45-28.24,4.22-39.2-1.79-2.5-45.47-.55-77.11,4.09-123.6-8.23-16.21-62.2-11.14-79.96-30.6C2.76,72.92-.23,18.03,10.38,12.73,24.98,5.43,120.68-.28,173.46,11.88Z" fill="#3e393c" stroke="#231f20" stroke-miterlimit="10" stroke-width="1.14"/><path d="M123.56,61.86c-.05-1.28,.1-58.87-.05-60.11-21.61-1.18-44.19-.96-63.56,.11-.18,1.01,.04,58.96-.04,60,0,6.35,5.15,11.5,11.5,11.5h40.66c6.35,0,11.5-5.15,11.5-11.5Z" fill="#0f0b0d" stroke="#231f20" stroke-miterlimit="10" stroke-width="1.92"/><path d="M52.1,39.74c-2.82,6.12-34.83,.61-42.7,1.09-4.16-2.78-.8-18.65-1.16-24.19,.4-4.56,30.42-6.35,34.18-6.36,19.46-4.41,10.61,19,9.68,29.45Z" fill="#b"/><path d="M124.77,17.62c.13-4.47,.9-8.03,3.37-6.66,12.48,4.35,28.04,3.79,41.16,4.66-.5,7.77-.04,15.6,1.35,23.26-14.32-.72-28.59-6.31-43.19-6.01-3.98-.31-2.03-9.55-2.69-15.26Z" fill="#c"/><path d="M27.24,69.98c-7.36,.14-15.04,.68-21.75-2.34,1.4,2.15,1.98,4.81,1.62,7.34,.33-2.3,58.33,7.15,64.02,4.83-7.54-10.44-32.86-10.04-43.89-9.83Z" fill="#d"/><path d="M178.88,74.82c-20.17-1.18-40.27,3.55-60.46,5.07-25.39,1.6-50.87-.4-76.28-.79-9.65-.27-26.57-7.46-35.9-4.47-1.81,.58,.69,6.05-.76,7.29,19.3,12.88,67.59,11.61,75.14,26.47-1.42,14.2-2.58,17.68-3.45,32.26,11.7,1.29,23.83,1.29,35.21-1.65-.47-6.82-.96-6.58-1.44-13.24-2.49-11.49,1.73-34.72,30.53-36.01,13.35-1.63,28.95-2.97,37.4-14.93Z"/><path d="M179.92,41.77c-.6-9.82-1.11-21.28-6.46-29.88-1.56-.36-1.46-.22-3.09-.55,.97,20.63,1.1,44.41,8.07,64.11,6.51-9.79,.54-22.61,1.48-33.68Z"/><path d="M6,76.98c2.61-20.9,.73-42.05,2.71-62.9C.1,24.09,2.65,73.19,.67,77.79c1.33,1.46,2.78,2.71,4.34,3.8,.53-1.47,.84-3.11,1-4.61Z"/><path d="M63.06,2.2c3.29,67.1-17.14,65.75,47.01,64.49,5.73,0,10.37-4.64,10.37-10.37-.09-1.12,.12-53.12-.05-54.22" fill="#684d45" stroke="#cab8a3" stroke-miterlimit="10" stroke-width="2.17"/><path d="M110.95,125.76c-1.3-5.97-1.98-6.8-2.15-10.71-8.08-4.36-21.48-3.32-28.9,.86-4.11,44.29-5.74,73.05-3.37,116.09,10.96,6.01,27.26,3.24,39.2,1.79,1.13-39.98-1.94-68.59-4.78-108.03Z" fill="#e" stroke="#231f20" stroke-miterlimit="10" stroke-width="1.14"/><path d="M114.73,216.45c.95,4.91-38.14,4.91-37.19,0-.71-6.12,37.91-6.12,37.19,0Z" fill="#684d45" stroke="#231f20" stroke-miterlimit="10" stroke-width="1.14"/><path d="M111.71,131.37c-8.67-3.49-25.84-3.18-33.85,.72" fill="#684d45" stroke="#231f20" stroke-miterlimit="10" stroke-width="1.14"/><path d="M113.04,148.52c-8.71-3.46-28.36-3.24-36.33,.7" fill="#684d45" stroke="#231f20" stroke-miterlimit="10" stroke-width="1.14"/><path d="M114.03,163.46c-8.59-3.25-30.1-3.1-38.01,.54" fill="#684d45" stroke="#231f20" stroke-miterlimit="10" stroke-width="1.14"/><path d="M114.03,174.43c-8.59-3.25-30.1-3.1-38.01,.54" fill="#684d45" stroke="#231f20" stroke-miterlimit="10" stroke-width="1.14"/><path d="M115.8,201.84c-8-2.86-32.43-2.85-40.3,.07" fill="#684d45" stroke="#231f20" stroke-miterlimit="10" stroke-width="1.14"/></svg>