<svg version="1.2" xmlns="http://www.w3.org/2000/svg" viewBox="0 0 200 200" width="200" height="200">
	<title>742px-Chess_symbols</title>
	<style>
		.s0 { fill: #000000 } 
	</style>
	<path id="♔" class="s0" aria-label="♔"  d="m94.2 117.9v-44.6q0.1-0.3 0.3-0.6-3.2-4-8-6.6-6.8-3.8-14.1-3.8-7.2 0-14.1 3.8-6.8 3.8-10.7 10.7-3.8 6.9-3.8 14.3 0 7.5 3.8 14.3 3.8 6.8 10.6 10.5 2.1 1.3 4.2 2zm13.1-44.6v44.6h31.7q2.2-0.7 4.3-2 6.8-3.7 10.6-10.5 3.8-6.8 3.8-14.3 0-7.4-3.9-14.3-3.8-6.9-10.7-10.7-6.8-3.8-14.1-3.8-7.2 0-14 3.8-4.8 2.6-8 6.6 0.2 0.3 0.3 0.6zm28.6 54.2h-70.3v28.1h70.3zm7.6 35.5h-85.5v-35.5q-3.9-1.2-7.4-3.3-6.4-5-11.4-14.1-5-9.1-5-19 0-10 5.1-19.1 5.1-9.2 14.3-14.1 9.1-4.9 18.8-4.9 7.4 0 14.5 2.9v-0.2q0-3.4 1.6-6.2 1.7-3 4.7-4.7 1.2-0.6 2.7-1v-5h-10v-6.5h10v-8.1h9.7v8.1h10v6.5h-10v5q1.5 0.4 2.7 1 2.9 1.7 4.5 4.7 1.8 2.8 1.8 6.2v0.2q7.1-2.9 14.4-2.9 9.6 0 18.8 4.9 9.2 4.9 14.3 14.1 5.1 9.1 5.1 19.1 0 9.9-5 19-5 9.1-11.3 14.1-3.6 2.1-7.4 3.3zm-51.4-106.6q0 2.3 1.1 4.3 1.2 2 3.2 3.2 2.2 1.1 4.3 1.1 2.2 0 4.3-1.1 2.1-1.2 3.2-3.2 1.1-2 1.1-4.3 0-2.2-1.1-4.3-1.1-2.1-3.2-3.1-2.1-1.2-4.3-1.2-2.1 0-4.3 1.2-2 1-3.2 3.1-1.1 2.1-1.1 4.3z"/>
</svg>